<svg width="101" height="34" viewBox="0 0 101 34" fill="none" xmlns="http://www.w3.org/2000/svg">
<circle cx="14" cy="17" r="14" fill="#0E1125"/>
<path d="M21.7942 12.5L14 26L6.20577 12.5L21.7942 12.5Z" stroke="white"/>
<path d="M7 13L14 17.5L21.5 13" stroke="white" stroke-linecap="round"/>
<path d="M14 17.5V25.5" stroke="white" stroke-linecap="round"/>
<path d="M48.253 17.7108C48.253 18.9831 48 20.0964 47.494 21.0506C46.988 22.0048 46.2723 22.7349 45.347 23.241C44.4361 23.747 43.3952 24 42.2241 24H37.2145V11.6169H41.6819C43.7639 11.6169 45.3759 12.1446 46.5181 13.2C47.6747 14.241 48.253 15.7446 48.253 17.7108ZM45.6289 17.7108C45.6289 16.3807 45.2819 15.3687 44.588 14.6747C43.9084 13.9663 42.9253 13.612 41.6386 13.612H39.7952V22.0048H41.9855C43.0988 22.0048 43.9807 21.6217 44.6313 20.8554C45.2964 20.0747 45.6289 19.0265 45.6289 17.7108ZM52.4384 24.1735C51.5131 24.1735 50.7902 23.9277 50.2698 23.4361C49.7637 22.9301 49.5107 22.2217 49.5107 21.3108C49.5107 20.3277 49.8288 19.5831 50.4649 19.0771C51.1155 18.5566 52.0481 18.2892 53.2625 18.2747L55.3228 18.2313V17.7542C55.3228 17.1325 55.2143 16.6699 54.9975 16.3663C54.7806 16.0627 54.4264 15.9108 53.9348 15.9108C53.4722 15.9108 53.1324 16.0193 52.9155 16.2361C52.7131 16.4386 52.583 16.7783 52.5252 17.2554L49.9445 17.1253C50.1035 16.2 50.5228 15.4988 51.2023 15.0217C51.8963 14.5446 52.8432 14.306 54.0432 14.306C55.2432 14.306 56.1685 14.6024 56.8192 15.1952C57.4698 15.788 57.7951 16.6337 57.7951 17.7325V21.1807C57.7951 21.7157 57.8529 22.0843 57.9685 22.2867C58.0842 22.4892 58.2866 22.5904 58.5758 22.5904C58.7637 22.5904 58.9445 22.5759 59.1179 22.547V23.8699C58.9734 23.8988 58.8432 23.9349 58.7276 23.9783C58.6119 24.0072 58.489 24.0289 58.3589 24.0434C58.2432 24.0578 58.1204 24.0723 57.9902 24.0867C57.8601 24.1012 57.7083 24.1084 57.5348 24.1084C56.9131 24.1084 56.4505 23.9566 56.1469 23.653C55.8577 23.3494 55.6842 22.9012 55.6264 22.3084H55.583C54.8746 23.5518 53.8264 24.1735 52.4384 24.1735ZM55.3228 19.5976L54.0432 19.6193C53.4649 19.6482 53.0529 19.7133 52.8071 19.8145C52.5758 19.9157 52.3951 20.0747 52.2649 20.2916C52.1493 20.494 52.0914 20.7687 52.0914 21.1157C52.0914 21.5639 52.1926 21.9036 52.3951 22.1349C52.6119 22.3518 52.8938 22.4602 53.2408 22.4602C53.6312 22.4602 53.9854 22.3518 54.3035 22.1349C54.6216 21.9181 54.8673 21.6289 55.0408 21.2675C55.2288 20.8916 55.3228 20.494 55.3228 20.0747V19.5976ZM62.6789 16.388C63.0115 15.6651 63.4307 15.1373 63.9368 14.8048C64.4428 14.4723 65.0428 14.306 65.7368 14.306C66.7488 14.306 67.5223 14.6169 68.0572 15.2386C68.6066 15.8602 68.8813 16.7711 68.8813 17.9711V24H66.4091V18.6651C66.4091 16.988 65.8452 16.1566 64.7175 16.1711C64.1247 16.1711 63.6404 16.4313 63.2645 16.9518C62.903 17.4578 62.7223 18.1084 62.7223 18.9036V24H60.25V10.9663H62.7223V14.5229C62.7223 15.159 62.7006 15.7807 62.6572 16.388H62.6789ZM71.2188 24V10.9663H73.6911V24H71.2188ZM76.211 12.7663V10.9663H78.6832V12.7663H76.211ZM76.211 24V14.4795H78.6832V24H76.211ZM83.3935 24.1735C82.4682 24.1735 81.7453 23.9277 81.2248 23.4361C80.7188 22.9301 80.4658 22.2217 80.4658 21.3108C80.4658 20.3277 80.7839 19.5831 81.42 19.0771C82.0706 18.5566 83.0031 18.2892 84.2176 18.2747L86.2778 18.2313V17.7542C86.2778 17.1325 86.1694 16.6699 85.9525 16.3663C85.7357 16.0627 85.3815 15.9108 84.8899 15.9108C84.4272 15.9108 84.0875 16.0193 83.8706 16.2361C83.6682 16.4386 83.5381 16.7783 83.4803 17.2554L80.8995 17.1253C81.0586 16.2 81.4778 15.4988 82.1574 15.0217C82.8513 14.5446 83.7983 14.306 84.9983 14.306C86.1983 14.306 87.1236 14.6024 87.7742 15.1952C88.4248 15.788 88.7501 16.6337 88.7501 17.7325V21.1807C88.7501 21.7157 88.808 22.0843 88.9236 22.2867C89.0393 22.4892 89.2417 22.5904 89.5309 22.5904C89.7188 22.5904 89.8995 22.5759 90.073 22.547V23.8699C89.9284 23.8988 89.7983 23.9349 89.6827 23.9783C89.567 24.0072 89.4441 24.0289 89.314 24.0434C89.1983 24.0578 89.0754 24.0723 88.9453 24.0867C88.8152 24.1012 88.6634 24.1084 88.4899 24.1084C87.8682 24.1084 87.4056 23.9566 87.1019 23.653C86.8128 23.3494 86.6393 22.9012 86.5815 22.3084H86.5381C85.8296 23.5518 84.7815 24.1735 83.3935 24.1735ZM86.2778 19.5976L84.9983 19.6193C84.42 19.6482 84.008 19.7133 83.7622 19.8145C83.5309 19.9157 83.3501 20.0747 83.22 20.2916C83.1043 20.494 83.0465 20.7687 83.0465 21.1157C83.0465 21.5639 83.1477 21.9036 83.3501 22.1349C83.567 22.3518 83.8489 22.4602 84.1959 22.4602C84.5863 22.4602 84.9405 22.3518 85.2586 22.1349C85.5766 21.9181 85.8224 21.6289 85.9959 21.2675C86.1839 20.8916 86.2778 20.494 86.2778 20.0747V19.5976ZM89.7738 26.1904V25.5181H100.118V26.1904H89.7738Z" fill="#0E1125"/>
</svg>
