<svg xmlns="http://www.w3.org/2000/svg" version="1.1" xmlns:xlink="http://www.w3.org/1999/xlink" xmlns:svgjs="http://svgjs.dev/svgjs" width="1500" height="356" viewBox="0 0 1500 356"><g transform="matrix(1,0,0,1,-0.9090909090909918,-0.7761014924499534)"><svg viewBox="0 0 396 94" data-background-color="#ffffff" preserveAspectRatio="xMidYMid meet" height="356" width="1500" xmlns="http://www.w3.org/2000/svg" xmlns:xlink="http://www.w3.org/1999/xlink"><g id="tight-bounds" transform="matrix(1,0,0,1,0.2400000000000091,0.20492567497274194)"><svg viewBox="0 0 395.52 93.5901486500545" height="93.5901486500545" width="395.52"><g><svg viewBox="0 0 558.1029406510178 132.06143097077594" height="93.5901486500545" width="395.52"><g transform="matrix(1,0,0,1,162.58294065101782,0)"><svg viewBox="0 0 395.52 132.06143097077594" height="132.06143097077594" width="395.52"><g id="textblocktransform"><svg viewBox="0 0 395.52 132.06143097077594" height="132.06143097077594" width="395.52" id="textblock"><g><svg viewBox="0 0 395.52 132.06143097077594" height="132.06143097077594" width="395.52"><g transform="matrix(1,0,0,1,0,0)"><svg width="395.52" viewBox="4 -38.7 148.84 49.7" height="132.06143097077594" data-palette-color="#000000"><g class="wordmark-text-0" data-fill-palette-color="primary" id="text-0"><path d="M14.25 0.55L14.25 0.55Q10.7 0.55 4 0L4 0 4.6-12.15 4-34.5 17.35-34.5Q24.1-34.5 27.9-30.45 31.7-26.4 31.7-19.2L31.7-19.2Q31.7-10.1 27-4.78 22.3 0.55 14.25 0.55ZM15.55-29.1L15.55-29.1Q12.25-29.1 10.9-29.05L10.9-29.05 10.4-13 10.75-4.9Q14.95-4.6 16.4-4.6L16.4-4.6Q20.35-4.6 22.63-7.8 24.9-11 24.9-17.1 24.9-23.2 22.68-26.15 20.45-29.1 15.55-29.1ZM41.1 0Q38.15 0 36.27-1.88 34.4-3.75 34.4-6.93 34.4-10.1 37.3-12.43 40.2-14.75 44.35-14.75L44.35-14.75 47.75-14.75 47.75-15.6Q47.75-18.05 46.75-18.95 45.75-19.85 43-19.85L43-19.85Q41.85-19.85 40.27-19.38 38.7-18.9 36.75-17.9L36.75-17.9 35.3-21.85Q37.45-23.35 40.52-24.55 43.6-25.75 45.6-25.75L45.6-25.75Q53.45-25.75 53.45-18.15L53.45-18.15 53.45-8.35Q53.45-5.55 55.2-2.1L55.2-2.1 49.9 0.15Q48.65-2.25 48.05-4.15L48.05-4.15Q45.3 0 41.1 0L41.1 0ZM43.2-5.1L43.2-5.1Q45.2-5.1 47.75-7.15L47.75-7.15 47.75-10.5Q45.1-11.1 43.45-11.1L43.45-11.1Q40.3-11.1 40.3-8.3L40.3-8.3Q40.3-6.85 41.1-5.98 41.9-5.1 43.2-5.1ZM74.15-12.65Q74.15-16.1 73.55-17.25 72.95-18.4 70.75-18.4 68.55-18.4 65.75-16.65L65.75-16.65 65.75-13 66.3-1.25 59.55 0 60.15-12.15 59.55-37.45 66.4-38.7 65.75-25.75 65.75-19.9Q66.5-20.9 67.45-21.85 68.4-22.8 70.4-24 72.4-25.2 74.67-25.2 76.95-25.2 78.5-23.43 80.05-21.65 80.05-18.6L80.05-18.6 79.75-13 80.3-1 73.55 0.25 74.15-12.65ZM85.79-37.45L92.64-38.7 91.99-13 92.54-1.25 85.79 0 86.39-12.15 85.79-37.45ZM98.44-24.2L105.14-25.45 104.54-13 105.09-1.25 98.39 0 98.99-12.15 98.44-24.2ZM98.09-32.77Q98.09-34.45 99.39-35.77 100.69-37.1 102.39-37.1 104.09-37.1 104.99-36.18 105.89-35.25 105.89-33.4 105.89-31.55 104.62-30.23 103.34-28.9 101.67-28.9 99.99-28.9 99.04-30 98.09-31.1 98.09-32.77ZM115.64 0Q112.69 0 110.81-1.88 108.94-3.75 108.94-6.93 108.94-10.1 111.84-12.43 114.74-14.75 118.89-14.75L118.89-14.75 122.29-14.75 122.29-15.6Q122.29-18.05 121.29-18.95 120.29-19.85 117.54-19.85L117.54-19.85Q116.39-19.85 114.81-19.38 113.24-18.9 111.29-17.9L111.29-17.9 109.84-21.85Q111.99-23.35 115.06-24.55 118.14-25.75 120.14-25.75L120.14-25.75Q127.99-25.75 127.99-18.15L127.99-18.15 127.99-8.35Q127.99-5.55 129.74-2.1L129.74-2.1 124.44 0.15Q123.19-2.25 122.59-4.15L122.59-4.15Q119.84 0 115.64 0L115.64 0ZM117.74-5.1L117.74-5.1Q119.74-5.1 122.29-7.15L122.29-7.15 122.29-10.5Q119.64-11.1 117.99-11.1L117.99-11.1Q114.84-11.1 114.84-8.3L114.84-8.3Q114.84-6.85 115.64-5.98 116.44-5.1 117.74-5.1ZM152.44 11L130.79 11 131.19 6.55 152.84 6.55 152.44 11Z" fill="#000000" data-fill-palette-color="primary"></path></g></svg></g></svg></g></svg></g></svg></g><g transform="matrix(1,0,0,1,0,0.3275123488075167)"><svg viewBox="0 0 131.4064062731609 131.4064062731609" height="131.4064062731609" width="131.4064062731609"><g><svg></svg></g><g id="icon-0"><svg viewBox="0 0 131.4064062731609 131.4064062731609" height="131.4064062731609" width="131.4064062731609"><g><path transform="scale(1.31406,1.31406)" d="M30 100c-16.569 0-30-13.431-30-30v-40c0-16.569 13.431-30 30-30h40c16.569 0 30 13.431 30 30v40c0 16.569-13.431 30-30 30z" fill="#000000" fill-rule="nonzero" stroke="none" stroke-width="1" stroke-linecap="butt" stroke-linejoin="miter" stroke-miterlimit="10" stroke-dasharray="" stroke-dashoffset="0" font-family="none" font-weight="none" font-size="none" text-anchor="none" style="mix-blend-mode: normal" data-fill-palette-color="accent"></path></g><g transform="matrix(1,0,0,1,26.616786972776424,26.281281254632184)"><svg viewBox="0 0 78.17283232760806 78.84384376389654" height="78.84384376389654" width="78.17283232760806"><g><svg xmlns="http://www.w3.org/2000/svg" xmlns:xlink="http://www.w3.org/1999/xlink" version="1.1" x="0" y="0" viewBox="0.7 0.5 46.6 47" enable-background="new 0 0 48 48" xml:space="preserve" height="78.84384376389654" width="78.17283232760806" class="icon-cg-0" data-fill-palette-color="quaternary" id="cg-0"><g fill="#ffffff" data-fill-palette-color="quaternary"><path fill="#ffffff" d="M27 7.8v-7c0-0.1-0.1-0.2-0.2-0.2H4.1C2.2 0.5 0.7 2 0.7 3.9v3.9C0.7 7.9 0.8 8 0.9 8h25.8C26.9 8 27 7.9 27 7.8z" data-fill-palette-color="quaternary"></path><path fill="#ffffff" d="M36.1 8h11c0.1 0 0.2-0.1 0.2-0.2V3.9c0-1.9-1.5-3.4-3.4-3.4h-7.8c-0.1 0-0.2 0.1-0.2 0.2v7C35.8 7.9 35.9 8 36.1 8z" data-fill-palette-color="quaternary"></path><path fill="#ffffff" d="M35.8 17.1v30.2c0 0.1 0.1 0.2 0.2 0.2h7.8c1.9 0 3.4-1.5 3.4-3.4v-27c0-0.1-0.1-0.2-0.2-0.2h-11C35.9 16.9 35.8 17 35.8 17.1z" data-fill-palette-color="quaternary"></path><path fill="#ffffff" d="M31.1 27.3l-3 7.8c-0.1 0.3 0.2 0.6 0.5 0.4l2.7-1.7c0.1-0.1 0.3-0.1 0.4 0l2.7 1.7c0.3 0.2 0.6-0.1 0.5-0.4l-3-7.8C31.6 27 31.2 27 31.1 27.3z" data-fill-palette-color="quaternary"></path><g fill="#ffffff" data-fill-palette-color="quaternary"><path fill="#ffffff" d="M0.7 44.1c0 1.9 1.5 3.4 3.4 3.4h22.6c0.1 0 0.2-0.1 0.2-0.2v-8.9c0-0.1-0.1-0.2-0.2-0.2H0.9c-0.1 0-0.2 0.1-0.2 0.2V44.1z" data-fill-palette-color="quaternary"></path><path fill="#ffffff" d="M26.7 16.9H0.9c-0.1 0-0.2 0.1-0.2 0.2v12c0 0.1 0.1 0.2 0.2 0.2h25.9c0.1 0 0.2-0.1 0.2-0.2v-12C27 17 26.9 16.9 26.7 16.9z" data-fill-palette-color="quaternary"></path></g></g></svg></g></svg></g></svg></g></svg></g></svg></g><defs></defs></svg><rect width="395.52" height="93.5901486500545" fill="none" stroke="none" visibility="hidden"></rect></g></svg></g></svg>